<?xml version="1.0" encoding="UTF-8" standalone="no"?>
<!DOCTYPE svg PUBLIC "-//W3C//DTD SVG 1.1//EN" "http://www.w3.org/Graphics/SVG/1.1/DTD/svg11.dtd">
<!-- Created with Vectornator (http://vectornator.io/) -->
<svg height="100%" stroke-miterlimit="10" style="fill-rule:nonzero;clip-rule:evenodd;stroke-linecap:round;stroke-linejoin:round;" version="1.1" viewBox="0 0 1024 1024" width="100%" xml:space="preserve" xmlns="http://www.w3.org/2000/svg" xmlns:vectornator="http://vectornator.io" xmlns:xlink="http://www.w3.org/1999/xlink">
<defs/>
<g id="Layer-3" vectornator:layerName="Layer 3" visibility="hidden">
<path d="M288.331 482.923L285.443 531.481L362.285 507.418L363.486 449.968L288.331 482.923Z" fill="#ffcc26" fill-rule="nonzero" opacity="0" stroke="none"/>
<path d="M384.127 440.767L380.46 502.981L482.162 468.863L479.567 398.542L384.127 440.767Z" fill="#ffcc26" fill-rule="nonzero" opacity="0" stroke="none"/>
<path d="M203.85 512.284L201.31 558.097L268.894 535.394L269.95 481.191L203.85 512.284Z" fill="#ffcc26" fill-rule="nonzero" opacity="0" stroke="none"/>
<path d="M122.734 544.152L120.547 585.737L178.739 565.129L179.648 515.929L122.734 544.152Z" fill="#ffcc26" fill-rule="nonzero" opacity="0" stroke="none"/>
<path d="M375.251 549.785L374.357 650.636L473.18 635.374L477.798 521.305L375.251 549.785Z" fill="#ffcc26" fill-rule="nonzero" opacity="0" stroke="none"/>
<path d="M284.533 585.685L283.876 665.029L356.536 653.022L359.931 563.279L284.533 585.685Z" fill="#ffcc26" fill-rule="nonzero" opacity="0" stroke="none"/>
<path d="M112.621 624.983L111.379 700.769L178.446 689.105L181.549 603.646L112.621 624.983Z" fill="#ffcc26" fill-rule="nonzero" opacity="0" stroke="none"/>
<path d="M198.543 607.123L197.942 682.679L264.367 671.245L267.471 585.786L198.543 607.123Z" fill="#ffcc26" fill-rule="nonzero" opacity="0" stroke="none"/>
<path d="M376.905 682.618L376.582 758.864L473.435 765.305L477.172 667.374L376.905 682.618Z" fill="#ffcc26" fill-rule="nonzero" opacity="0" stroke="none"/>
<path d="M281.923 696.032L281.665 756.125L358.77 761.201L361.745 684.017L281.923 696.032Z" fill="#ffcc26" fill-rule="nonzero" opacity="1" stroke="none"/>
<path d="M198.754 704.946L196.461 756.824L262.862 760.877L266.445 693.949L198.754 704.946Z" fill="#ffcc26" fill-rule="nonzero" opacity="1" stroke="none"/>
<path d="M109.947 721.081L106.303 764.188L178.327 764.263L180.174 710.121L109.947 721.081Z" fill="#ffcc26" fill-rule="nonzero" opacity="1" stroke="none"/>
</g>
<clipPath id="ArtboardFrame">
<rect height="1024" width="1024" x="0" y="0"/>
</clipPath>
<g clip-path="url(#ArtboardFrame)" id="Layer-1" vectornator:layerName="Layer 1">
<path d="M52.4414 640.653L470.436 502.813L949.974 647.287L950.81 674.089L845.122 645.91L846.394 738.167L1024.07 740.542L1024.25 775.462L0 775.462L0.217863 754.685L470.436 755.93L470.436 530.498L52.8849 662.978L52.4414 640.653Z" fill="#9b9b9b" fill-rule="nonzero" opacity="1" stroke="none"/>
<path d="M477.01 392.473L957.712 588.713L957.314 619.529L478.155 466.175L477.01 402.889L36.0762 590.866L36.0652 582.85L477.01 392.473Z" fill="#9b9b9b" fill-rule="nonzero" opacity="1" stroke="#9b9b9b" stroke-linecap="butt" stroke-linejoin="miter" stroke-width="15"/>
<path d="M507.52 546.383L507.091 750.861L809.607 753.081L809.732 637.362L507.52 546.383Z" fill="#ffcc26" fill-rule="nonzero" opacity="1" stroke="none"/>
<path d="M494.641 665.494L818.79 714.817L817.932 693.627L497.208 627.702L494.641 665.494Z" fill="#9b9b9b" fill-rule="nonzero" opacity="1" stroke="none"/>
<path d="M583.617 762.863L617.862 765.014L617.095 561.752L582.51 550.783L583.617 762.863Z" fill="#9b9b9b" fill-rule="nonzero" opacity="1" stroke="none"/>
<path d="M670.845 764.401L700.215 766.299L699.557 586.899L669.896 577.218L670.845 764.401Z" fill="#9b9b9b" fill-rule="nonzero" opacity="1" stroke="none"/>
<path d="M745.342 769.604L767.86 771.245L767.355 616.069L744.614 607.695L745.342 769.604Z" fill="#9b9b9b" fill-rule="nonzero" opacity="1" stroke="none"/>
</g>
<g id="Layer-2" vectornator:layerName="Layer 2" visibility="hidden">
<path d="M0 738.164L1024 740.539L1024 775.46L0 775.46L0 738.164Z" fill="#9b9b9b" fill-rule="nonzero" opacity="1" stroke="none"/>
</g>
</svg>
